<svg data-v-0dd9719b="" version="1.0" xmlns="http://www.w3.org/2000/svg" xmlns:xlink="http://www.w3.org/1999/xlink" width="100%" height="100%" viewBox="0 0 340.000000 250.000000" preserveAspectRatio="xMidYMid meet" color-interpolation-filters="sRGB" style="margin: auto;"> <rect data-v-0dd9719b="" x="0" y="0" width="100%" height="100%" fill="#fff" fill-opacity="1" class="background"></rect> <rect data-v-0dd9719b="" x="0" y="0" width="100%" height="100%" fill="url(#watermark)" fill-opacity="1" class="watermarklayer"></rect> <g data-v-0dd9719b="" fill="#973bb8" class="icon-text-wrapper icon-svg-group iconsvg" transform="translate(47.29499816894531,94.99129676818848)"><g class="iconsvg-imagesvg" transform="translate(0,0)"><g><rect fill="#973bb8" fill-opacity="0" stroke-width="2" x="0" y="0" width="60" height="60.01740504746377" class="image-rect"></rect> <svg x="0" y="0" width="60" height="60.01740504746377" filtersec="colorsb111261421" class="image-svg-svg primary" style="overflow: visible;"><svg xmlns="http://www.w3.org/2000/svg" viewBox="-0.004387442953884602 -0.022933628410100937 44.47016906738281 44.482933044433594"><title>资源 7</title><g id="图层_2" data-name="图层 2"><g id="Layer_1" data-name="Layer 1"><path d="M41.9,11.84a7.78,7.78,0,0,1-7.73,7h0a7.77,7.77,0,0,1-2.1-.29,10.51,10.51,0,0,1-7.38,14,5.86,5.86,0,1,0,2.71,11.4,22.24,22.24,0,0,0,14.5-32Z" fill="#00ca8d"></path><path d="M18.47,40a7.73,7.73,0,0,1,.94-5.88,8.4,8.4,0,0,1,1.17-1.47A10.52,10.52,0,0,1,12.16,19.2,5.86,5.86,0,0,0,.94,15.84,22.24,22.24,0,0,0,16,43.6a22,22,0,0,0,5.4.86A7.76,7.76,0,0,1,18.47,40Z" fill="#973bb8"></path><path d="M38.43,7A22.23,22.23,0,0,0,7,6,22.35,22.35,0,0,0,3.41,10.4a7.76,7.76,0,0,1,10,3.43,7.24,7.24,0,0,1,.69,1.75,9.85,9.85,0,0,1,.94-1A10.51,10.51,0,0,1,29.9,15a5.86,5.86,0,1,0,8.53-8Z" fill="#ff2ba6"></path></g></g></svg></svg> <!----></g></g> <g transform="translate(67,6.087453842163086)"><g data-gra="path-name" fill-rule="" class="tp-name iconsvg-namesvg" transform="translate(0,0)"><g transform="scale(1)"><g><path d="M29.3-8.96Q30.82-8.06 31.97-7.69 33.12-7.31 34.45-7.27L34.45-7.27 34.38-1.48Q34.34 0.4 34.02 1.33 33.7 2.27 32.69 2.7 31.68 3.13 29.56 3.13L29.56 3.13 25.2 3.13Q24.19 3.13 23.22 2.65 22.25 2.16 21.62 1.15 20.99 0.14 20.99-1.33L20.99-1.33 20.99-4.64Q19.4-1.84 17.53 0.36 15.66 2.56 13.75 3.89L13.75 3.89Q11.88 1.44 9 0.07L9 0.07Q8.5 1.33 7.7 3.46L7.7 3.46Q6.44 2.59 4.72 2.03 2.99 1.48 1.55 1.44L1.55 1.44Q2.92-1.58 3.94-4.18 4.97-6.77 5.94-9.83L5.94-9.83 11.77-7.81Q10.87-4.93 9.65-1.62L9.65-1.62Q13.54-4.64 16.06-8.96 18.58-13.28 19.15-18.94L19.15-18.94 16.99-18.94 16.99-14.33 11.38-14.33 11.38-14.47Q9.83-12.96 8.53-10.01L8.53-10.01Q5.54-12.13 2.41-14.26L2.41-14.26 1.12-15.16 5.08-19.91Q6.34-19.22 9.29-17.24L9.29-17.24Q10.55-16.38 11.38-15.84L11.38-15.84 11.38-23.51Q9.83-21.85 8.93-19.3L8.93-19.3Q7.09-20.52 4.07-22.28L4.07-22.28 1.66-23.65 5.47-28.58 6.66-27.94Q9.9-26.21 11.81-25.06L11.81-25.06 19.3-25.06 19.3-28.58 25.78-28.58 25.78-25.06 33.66-25.06 33.66-14.33 27.32-14.33 27.32-18.94 25.56-18.94Q25.24-16.09 24.52-13.36L24.52-13.36 27.07-13.36 27.07-5.04Q27.07-4.14 27.16-3.78 27.25-3.42 27.47-3.33 27.68-3.24 28.26-3.24L28.26-3.24Q28.8-3.24 29-3.37 29.2-3.49 29.25-3.94 29.3-4.39 29.3-5.62L29.3-5.62 29.3-8.96ZM49.82-14.51Q50.62-13 51.17-10.8 51.73-8.6 51.73-6.26L51.73-6.26Q51.73-2.77 50.26-1.44 48.78-0.11 46.04 0L46.04 0 44.86 0.04Q44.96-0.68 44.96-1.48L44.96-1.48Q44.96-2.7 44.77-3.98 44.57-5.26 44.21-6.26L44.21-6.26 44.21 3.2 38.3 3.2 38.3-27.76 51.52-27.76 51.52-22 49.82-14.51ZM44.78-6.34Q45.43-6.3 45.67-6.89 45.9-7.49 45.9-8.78L45.9-8.78Q45.9-10.08 45.45-11.2 45-12.31 44.21-13.54L44.21-13.54 44.21-6.37 44.78-6.34ZM63.4 2.99L63.4 1.66 58.75 1.66 58.75 2.99 52.27 2.99 52.27-27.47 69.88-27.47 69.88 2.99 63.4 2.99ZM44.21-13.79L45.83-22 44.21-22 44.21-13.79ZM58.75-16.24L63.4-16.24 63.4-20.99 58.75-20.99 58.75-16.24ZM63.4-9.86L58.75-9.86 58.75-4.82 63.4-4.82 63.4-9.86ZM106.49-2.63Q104.51-0.22 104.08 3.38L104.08 3.38Q100.69 2.77 98.08 1.78 95.47 0.79 93.2-0.65L93.2-0.65 93.2 3.35 86.72 3.35 86.72-0.65Q84.46 0.79 81.81 1.78 79.16 2.77 75.78 3.38L75.78 3.38Q75.35-0.22 73.37-2.63L73.37-2.63Q77.26-3.31 79.81-4 82.37-4.68 84.17-5.54L84.17-5.54 73.94-5.54 73.91-11.34 75.92-11.34Q75.71-12.85 75.4-13.91 75.1-14.98 74.38-16.13L74.38-16.13Q76.14-16.52 78.55-17.17L78.55-17.17Q76.28-18.36 73.51-19.66L73.51-19.66 75.78-23.62Q79.52-21.92 83.2-20.12L83.2-20.12Q82.37-19.3 81.86-18.14L81.86-18.14Q83.74-18.72 84.64-19.04L84.64-19.04 84.2-23.18 83.77-22Q83.66-21.49 83.34-20.7L83.34-20.7Q81.32-21.78 79.7-22.61 78.08-23.44 75.67-24.55L75.67-24.55 77.94-28.51Q82.26-26.53 85.46-24.98L85.46-24.98Q84.82-24.34 84.49-23.69L84.49-23.69 88.88-24.26 88.85-28.15 95.44-28.15 95.47-25.13 105.7-26.46 106.27-20.84 100.91-20.16Q102.02-19.91 103.5-19.76 104.98-19.62 105.73-19.66L105.73-19.66 105.59-14.76Q105.52-13.32 104.9-12.76 104.29-12.2 102.56-12.2L102.56-12.2 93.2-12.2 93.2-11.34 105.95-11.34 105.98-5.54 95.69-5.54Q97.49-4.68 100.04-4 102.6-3.31 106.49-2.63L106.49-2.63ZM95.51-18.9Q95.51-18.25 95.8-18.07 96.08-17.89 96.84-17.89L96.84-17.89 98.28-17.89Q99.14-17.89 99.38-18.11 99.61-18.32 99.61-19.22L99.61-19.22 99.61-19.98 95.51-19.44 95.51-18.9ZM86.83-14.18Q83.09-12.82 79.52-11.81L79.52-11.81 77.94-11.34 86.72-11.34 86.72-13.54 89.17-13.54Q88.92-14 88.92-14.69L88.92-14.69 88.88-18.58 85.82-18.18 86.83-14.18ZM134.71-10.66Q135.47-10.19 137.72-9.94 139.97-9.68 141.19-9.72L141.19-9.72 141.05-0.11Q141.01 1.33 140.38 1.89 139.75 2.45 138.02 2.45L138.02 2.45 120.92 2.45Q120.02 2.45 119.3 1.8 118.58 1.15 118.58-0.04L118.58-0.04 118.55-12.49 110.7-11.27 110.16-17.71 118.55-19.04 118.51-28.12 124.99-28.12 125.03-20.05 141.88-22.72 142.42-16.27 125.03-13.54 125.06-4.97Q125.06-4.32 125.35-4.14 125.64-3.96 126.4-3.96L126.4-3.96 133.38-3.96Q134.24-3.96 134.48-4.18 134.71-4.39 134.71-5.29L134.71-5.29 134.71-10.66ZM172.44-10.12Q173.63-8.1 175.28-6.3 176.94-4.5 179.53-2.23L179.53-2.23Q177.3-0.58 175.43 3.53L175.43 3.53Q171.36-0.25 168.62-4.21L168.62-4.21Q165.38-0.11 159.95 3.64L159.95 3.64Q159.16 1.98 157.97 0.43L157.97 0.43 146.12 2.63Q146.2 1.44 145.94-0.79 145.69-3.02 145.33-3.67L145.33-3.67 149.11-4.39 149.11-9.72 146.2-9.72 146.2-15.95 149.11-15.95 149.11-21.06 145.87-21.06 145.87-27.29 158.94-27.29 158.94-21.06 155.59-21.06 155.59-15.95 156.85-15.95Q161.21-21.67 163.15-28.26L163.15-28.26 169.78-28.26Q169.24-26.53 168.7-25.2L168.7-25.2 176.47-25.2 176.47-18.72Q173.92-12.92 172.44-10.12L172.44-10.12ZM159.05-4.21Q162.61-7.02 164.9-10.22 167.18-13.43 169.6-18.72L169.6-18.72 165.82-18.72Q163.66-14.65 161.5-11.95L161.5-11.95Q160.02-13.28 158.58-14.18L158.58-14.18 158.58-9.72 155.59-9.72 155.59-5.58 159.05-6.23 159.05-4.21Z" transform="translate(-1.1200000047683716, 28.579999923706055)"></path></g> <!----> <!----> <!----> <!----> <!----> <!----> <!----></g></g> <g data-gra="path-slogan" fill-rule="" class="tp-slogan iconsvg-slogansvg" fill="#973bb8" transform="translate(5,38.470001220703125)"><rect x="0" height="1" y="4.185000419616699" width="30.03917694091797"></rect> <rect height="1" y="4.185000419616699" width="30.03917694091797" x="138.3708267211914"></rect> <g transform="translate(33.03917694091797,0)"><g transform="scale(1)"><path d="M7.17-6.09L7.17-6.09L6.09-6.09Q6-7.73 3.94-7.83L3.94-7.83Q2.02-7.78 2.02-6.33L2.02-6.33Q2.02-5.39 3.05-5.25L3.05-5.25L5.48-4.69Q7.41-4.22 7.41-2.34L7.41-2.34Q7.36 0.05 4.03 0.14L4.03 0.14Q2.20 0.14 1.45-0.61L1.45-0.61Q0.52-1.31 0.56-2.77L0.56-2.77L1.69-2.77Q1.73-0.80 4.03-0.75L4.03-0.75Q6.28-0.80 6.33-2.20L6.33-2.20Q6.52-3.38 4.45-3.75L4.45-3.75L2.67-4.13Q0.84-4.64 0.84-6.19L0.84-6.19Q0.98-8.72 3.84-8.81L3.84-8.81Q7.08-8.81 7.17-6.09ZM10.03-5.06L14.53-5.06L14.53-8.58L15.70-8.58L15.70 0L14.53 0L14.53-3.98L10.03-3.98L10.03 0L8.86 0L8.86-8.58L10.03-8.58L10.03-5.06ZM18.80-1.03L23.95-1.03L23.95 0L17.63 0L17.63-8.58L23.86-8.58L23.86-7.59L18.80-7.59L18.80-4.92L23.48-4.92L23.48-3.89L18.80-3.89L18.80-1.03ZM26.86-8.58L31.17-1.64L31.17-8.58L32.30-8.58L32.30 0L30.98 0L26.63-6.94L26.58-6.94L26.58 0L25.45 0L25.45-8.58L26.86-8.58ZM41.02-8.58L37.78-3.47L37.78 0L36.61 0L36.61-3.47L33.38-8.58L34.73-8.58L37.17-4.45L39.66-8.58L41.02-8.58ZM47.72 0L46.88-2.48L43.41-2.48L42.52 0L41.34 0L44.58-8.58L45.89-8.58L48.98 0L47.72 0ZM45.14-7.31L43.78-3.52L46.45-3.52L45.19-7.31L45.14-7.31ZM51.42-8.58L55.73-1.64L55.73-8.58L56.86-8.58L56.86 0L55.55 0L51.19-6.94L51.14-6.94L51.14 0L50.02 0L50.02-8.58L51.42-8.58ZM65.06-3.61L62.44-3.61L62.44-4.59L66.19-4.59L66.19 0L65.44 0L65.16-1.08Q64.17 0.09 62.34 0.14L62.34 0.14Q60.61 0.14 59.67-0.75L59.67-0.75Q58.27-2.06 58.31-4.36L58.31-4.36Q58.64-8.63 62.39-8.81L62.39-8.81Q65.58-8.63 66.05-6L66.05-6L64.92-6Q64.45-7.78 62.34-7.83L62.34-7.83Q59.67-7.64 59.53-4.31L59.53-4.31Q59.53-0.75 62.39-0.75L62.39-0.75Q63.42-0.75 64.17-1.31L64.17-1.31Q65.11-2.06 65.06-3.61L65.06-3.61ZM76.31-1.08L75.42-1.78L76.03-2.48L77.11-1.64Q78.09-2.63 78.09-4.27L78.09-4.27Q77.91-7.64 75.09-7.83L75.09-7.83Q72.23-7.69 72.09-4.27L72.09-4.27Q72.23-0.94 75.09-0.80L75.09-0.80Q75.80-0.80 76.31-1.08L76.31-1.08ZM78.05-0.94L79.17-0.05L78.61 0.56L77.30-0.33Q76.45 0.14 75.09 0.14L75.09 0.14Q71.16 0 70.88-4.27L70.88-4.27Q71.11-8.72 75.09-8.81L75.09-8.81Q78.98-8.67 79.27-4.27L79.27-4.27Q79.22-2.20 78.05-0.94L78.05-0.94ZM80.81-8.58L81.98-8.58L81.98 0L80.81 0L80.81-8.58ZM88.13-7.22L83.48-7.22L83.48-8.25L89.34-8.25L89.34-7.31Q86.63-4.27 85.83 0L85.83 0L84.70 0Q85.31-3.66 88.13-7.22L88.13-7.22ZM96.23-3.47L96.23-2.58L90.19-2.58L90.19-3.47L96.23-3.47ZM97.31-2.02L97.31-2.02L98.34-2.02Q98.53-0.66 99.80-0.66L99.80-0.66Q101.44-0.61 101.81-3.80L101.81-3.80L101.77-3.80Q101.25-2.86 99.84-2.81L99.84-2.81Q97.31-2.95 97.22-5.53L97.22-5.53Q97.36-8.34 99.94-8.44L99.94-8.44Q102.80-8.39 102.89-4.55L102.89-4.55Q102.70 0.05 99.80 0.14L99.80 0.14Q97.50 0.09 97.31-2.02ZM100.03-3.75L100.03-3.75Q101.58-3.84 101.63-5.67L101.63-5.67Q101.58-7.41 99.94-7.45L99.94-7.45Q98.39-7.36 98.30-5.58L98.30-5.58Q98.30-3.70 100.03-3.75Z" transform="translate(-0.5602678571428572, 8.8125)"></path></g></g></g></g></g><defs v-gra="od"></defs></svg>